<svg xmlns="http://www.w3.org/2000/svg" xmlns:svg="http://www.w3.org/2000/svg" id="svg2" width="435.154" height="413.182" version="1.1" viewBox="0 0 407.957 387.358"><metadata id="metadata7"/><g id="layer1" transform="translate(-1617.6138,-733.71057)"><rect style="opacity:0;fill:#fff;fill-opacity:1;stroke:none;stroke-width:20;stroke-linecap:round;stroke-miterlimit:4;stroke-dasharray:none;stroke-opacity:1" id="rect4634" width="417.698" height="307.086" x="1581.85" y="992.882"/><rect style="opacity:0;fill:#fff;fill-opacity:1;stroke:none;stroke-width:20;stroke-linecap:round;stroke-miterlimit:4;stroke-dasharray:none;stroke-opacity:1" id="rect4636" width="582.143" height="339.286" x="1523.015" y="981.982"/><path style="fill:#000" id="path4601" d="m 1773.8216,857.77397 c -34.1582,0.40227 -68.383,-0.73055 -102.5019,1.04297 -8.8181,1.79892 -15.0763,10.08581 -18.2324,17.95118 0.4197,34.28185 -1.0035,68.65955 1.4277,102.8789 0.4016,4.86956 2.7687,9.6398 7.0625,11.80469 l 4.1016,2.00976 c 11.5719,4.27617 18.2784,2.28297 27.3279,3.22935 58.965,0.53252 117.7987,0.0267 176.5705,0.36245 33.8593,-0.50409 68.4353,0.12373 102.4707,-0.52539 8.613,-3.97798 17.7055,-11.50875 17.2324,-21.93359 1.4684,-32.75127 0.5413,-65.55829 0.8164,-98.33203 -4.0908,-9.19578 -12.3444,-18.76226 -23.3984,-17.85743 -64.2737,-1.20767 -128.5921,-0.38261 -192.877,-0.63086 z m 151.0039,12.5 c 15.4164,0.51071 31.1027,-1.00724 46.2325,1.14063 8.3287,3.86848 5.703,13.99257 6.3501,21.24196 -0.1059,28.20646 0.9964,56.82043 -1.1509,84.70921 -2.2273,7.62791 -11.5343,6.04029 -17.6068,6.4189 -25.6865,0.51047 -51.3807,0.35871 -77.0709,0.44243 4e-4,-37.98698 -5e-4,-75.97396 0,-113.96094 14.416,0.003 28.832,0.005 43.248,0.008 z m -163.248,59.49415 0,54.45898 c -29.7102,-0.42128 -59.5834,0.75166 -89.1699,-1.19531 -7.8875,-2.7507 -5.6947,-12.44595 -6.3968,-18.77886 -0.3394,-28.55113 -1.0666,-57.39736 0.3929,-85.75044 1.0949,-6.9006 9.0814,-8.70027 14.9872,-8.01189 26.6357,-0.41419 53.4761,-0.13077 80.1866,-0.22248 z m 60,-59.5 48,0 0,113.96484 c -32,0.0224 -64,0.0224 -96,0 l 0,-113.96484 z"/></g></svg>