<svg xmlns="http://www.w3.org/2000/svg" xmlns:svg="http://www.w3.org/2000/svg" id="svg2" width="24mm" height="24mm" version="1.1" viewBox="0 0 85.039 85.039"><metadata id="metadata7"/><g id="layer1" transform="translate(-2281.6285,-1307.1106)"><path style="fill:#000;fill-opacity:1" id="path4672" d="m 2315.6723,1378.7639 c -2.3701,-0.099 -4.3103,-1.9236 -4.3103,-4.5676 0,-1.8187 0.3813,-2.4054 6.6781,-10.2658 3.673,-4.5851 10.2397,-12.8924 10.2397,-13.0196 v -0.9565 c 0,-0.1555 -5.8292,-7.5636 -8.6006,-11.0206 -8.2638,-10.308 -8.3172,-10.3868 -8.3172,-12.2952 0,-2.012 1.5903,-4.1962 3.3826,-4.6461 2.7984,-0.7023 3.6371,0.071 13.8439,12.7658 5.3394,6.6407 10.0693,12.6894 10.511,13.4414 1.5124,2.5743 1.0724,3.3335 -9.7858,16.8924 -5.5885,6.9785 -10.6207,12.9019 -11.1831,13.1623 -0.8297,0.3839 -1.6681,0.5425 -2.4583,0.5095 z"/></g></svg>