<svg xmlns="http://www.w3.org/2000/svg" xmlns:svg="http://www.w3.org/2000/svg" id="svg11" width="24" height="24" version="1.1" viewBox="0 0 24 24"><metadata id="metadata15"/><desc id="desc4"/><g id="Page-1" transform="matrix(0.88,0,0,0.88,-2.3589831,-2.4945763)" style="fill:none;fill-rule:evenodd;stroke:none;stroke-width:1"><g id="icon-54-document" style="fill:#555"><path id="document" d="M 19.5,3 H 9.0027601 C 7.8966662,3 7,3.8983383 7,5.0073299 V 27.99267 C 7,29.101288 7.8909254,30 8.9974219,30 H 24.002578 C 25.105724,30 26,29.101788 26,28.009205 V 10.5 10 L 20,3 Z M 19,4 H 8.9955775 C 8.4457352,4 8,4.4552629 8,4.995457 V 28.004543 C 8,28.554319 8.4547089,29 8.9999602,29 H 24.00004 C 24.552303,29 25,28.555054 25,28.006602 V 11 H 20.997913 C 19.894496,11 19,10.113445 19,8.994081 Z m 1,0.5 V 8.9912152 C 20,9.5483517 20.450651,10 20.996739,10 h 3.703212 z"/></g></g></svg>