<svg xmlns="http://www.w3.org/2000/svg" xmlns:svg="http://www.w3.org/2000/svg" id="svg12" width="24" height="24" version="1.1" viewBox="0 0 24 24"><metadata id="metadata16"/><desc id="desc4"/><g id="Page-1" transform="matrix(0.8,0,0,0.8,-1.1491215,-0.99135714)" style="fill:none;fill-rule:evenodd;stroke:none;stroke-width:1"><g id="g9" style="fill:#555"><path id="folder" d="M 17,8.7966102 15,4.6610169 H 4.0027601 c -1.1060938,0 -2.2698019,1.2286648 -2.2739465,2.3301381 l -0.067797,18.01769 c -0.00414,1.099676 1.2386958,2.262341 2.3322705,2.262341 H 29.006713 c 1.100862,0 2.264473,-1.163809 2.264473,-2.266275 V 10.995089 c 0,-1.1018571 -1.168246,-2.1984788 -2.277045,-2.1984788 z M 16.359985,10 14.400024,6 H 3.9917348 C 3.4440148,6 3,6.4553056 3,6.9918031 V 25.008197 C 3,25.555955 3.4461086,26 3.9929654,26 H 29.007035 C 29.555434,26 30,25.555369 30,24.999128 V 11.000872 C 30,10.448106 29.546172,10 28.997017,10 Z"/></g></g></svg>