<svg xmlns="http://www.w3.org/2000/svg" xmlns:svg="http://www.w3.org/2000/svg" id="svg2" width="621.53" height="511.792" version="1.1" viewBox="0 0 582.685 479.805"><metadata id="metadata7"/><g id="layer1" transform="translate(-653.01497,-260.03377)"><path style="fill:#000" id="path4552" d="m 695.99753,702.79586 c -3.29033,-1.01058 -6.42025,-3.05298 -9.6911,-6.32383 -8.67255,-8.67254 -8.00984,8.43585 -7.71213,-199.09539 l 0.26316,-183.44881 2.97438,-5.37025 c 3.26844,-5.90119 7.52011,-9.64979 13.27359,-11.703 3.0929,-1.10375 45.17225,-1.34668 239.53411,-1.38286 209.50556,-0.039 236.19046,0.12672 239.44616,1.48705 5.8648,2.45046 9.611,5.84578 12.7973,11.59881 l 2.9744,5.37025 0.2632,183.44881 c 0.2976,207.50369 0.9581,190.42511 -7.6992,199.08249 -8.7173,8.71722 14.5485,7.97766 -248.49546,7.89905 -203.69032,-0.0609 -233.68107,-0.2578 -237.92841,-1.56232 z m 474.72357,-18.00439 2.6363,-2.63637 0,-182.30787 0,-182.30787 -2.4134,-2.80577 -2.4134,-2.80576 -234.17316,0 -234.17315,0 -2.41341,2.80576 -2.41342,2.80577 0,182.49198 0,182.49199 2.64602,2.45225 2.64603,2.45225 233.71763,0 233.71756,0 2.6364,-2.63636 z m -424.859,-118.9667 c -5.33966,-1.9541 -12.08777,-8.74985 -14.24953,-14.35014 -1.59912,-4.14269 -1.75511,-9.5684 -1.75511,-61.0468 l 0,-56.5 2.37298,-4.77734 c 3.03756,-6.11529 9.18859,-11.36649 15.51484,-13.24519 7.50743,-2.22947 365.71692,-2.22947 373.22432,0 6.3262,1.8787 12.4773,7.1299 15.5148,13.24519 l 2.373,4.77734 0,56.5 c 0,52.26633 -0.1365,56.85384 -1.822,61.22212 -2.2133,5.73583 -9.7925,12.8964 -15.4422,14.58908 -3.0067,0.90083 -48.5105,1.17173 -187.85176,1.11834 -158.72511,-0.0608 -184.43062,-0.27051 -187.87934,-1.5326 z m 374.0819,-17.7027 2.4134,-2.80577 0,-53.50998 c 0,-54.88046 -0.084,-56.15702 -3.9133,-59.09669 -2.315,-1.77734 -365.85837,-1.77734 -368.1733,0 -3.82813,2.93915 -3.91334,4.22231 -3.91334,58.92995 0,57.76408 -0.10743,56.58493 5.357,58.80091 1.19219,0.48346 82.82067,0.78437 183.97968,0.67819 l 181.83656,-0.19085 2.4133,-2.80576 z m -338.58654,-22.6538 0,-7.95956 8.25,-0.29044 8.25,-0.29044 0.26688,-25.75 0.26688,-25.75 -8.51688,0 -8.51688,0 0,-8.5 0,-8.5 25,0 25,0 0,8.5 0,8.5 -8.51688,0 -8.51688,0 0.26688,25.75 0.26688,25.75 8.25,0.29044 8.25,0.29044 0,7.95956 0,7.95956 -25,0 -25,0 0,-7.95956 z"/></g></svg>