<svg xmlns="http://www.w3.org/2000/svg" xmlns:svg="http://www.w3.org/2000/svg" id="svg2" width="360.248" height="492.905" version="1.1" viewBox="0 0 337.732 462.098"><metadata id="metadata7"/><g id="layer1" transform="translate(-1659.8922,-1196.6377)"><path style="fill:#000" id="path4181" d="m 1730.7583,1541.9369 0,-10.5 98,0 98,0 0,10.5 0,10.5 -98,0 -98,0 0,-10.5 z m 12.4617,-35.3793 c 0.3378,-1.0643 16.9805,-47.3144 36.9837,-102.7779 l 36.3695,-100.8428 12.2335,0 12.2335,0 32.8304,93 c 18.0567,51.15 34.3941,97.3875 36.3053,102.75 l 3.4749,9.75 -14.2282,0 -14.2282,0 -8.9681,-26.4906 -8.968,-26.4906 -39,-0.01 -39,-0.01 -9.12,26.2475 -9.12,26.2475 -14.2062,0.2779 c -13.6554,0.2672 -14.1825,0.2029 -13.5921,-1.6572 z m 115.5418,-74.8707 c 0.01,-1.61 -29.5389,-88.2253 -30.0998,-88.2373 -0.5637,-0.012 -30.9191,86.6459 -30.9086,88.2373 0,0.4125 13.7299,0.75 30.5049,0.75 16.775,0 30.5016,-0.3375 30.5035,-0.75 z"/></g></svg>