<svg xmlns="http://www.w3.org/2000/svg" xmlns:svg="http://www.w3.org/2000/svg" id="svg8" width="201.635" height="201.635" version="1.1" viewBox="0 0 53.349 53.349"><metadata id="metadata5"/><g id="layer1" transform="translate(-82.938438,-115.3551)"><path style="fill:#000;stroke-width:.08466666" id="path826" d="m 114.69568,164.8748 c -0.51294,-0.28758 -0.4879,0.19003 -0.4879,-9.30778 v -8.68253 l -5.10117,-3.4e-4 c -5.50359,-3.4e-4 -5.84382,-0.0219 -7.36746,-0.46571 -3.772845,-1.09902 -6.991271,-4.08787 -8.388867,-7.79046 -1.240375,-3.28608 -1.016564,-6.8476 0.63057,-10.03432 1.774888,-3.43388 4.908816,-5.80854 8.839257,-6.69774 l 0.84667,-0.19155 10.30623,-0.0284 c 11.37869,-0.0314 10.66072,-0.064 10.95116,0.49762 0.18641,0.36047 0.0974,0.76842 -0.2271,1.04151 -0.25544,0.21494 -0.27045,0.21677 -1.77512,0.21677 h -1.5175 v 20.48284 20.48283 l -0.21677,0.25762 c -0.2731,0.32455 -0.68105,0.41351 -1.04152,0.2271 -0.56268,-0.29098 -0.51971,1.44877 -0.51971,-21.04152 v -20.40892 h -1.82034 -1.82033 v 20.488 20.48799 l -0.23283,0.25828 c -0.28132,0.31206 -0.71887,0.39843 -1.05727,0.20871 z m -0.4879,-30.56903 v -10.88538 l -5.2705,0.0338 c -4.94539,0.0317 -5.3175,0.0445 -6.0325,0.20784 -2.11352,0.48281 -3.74427,1.33019 -5.205755,2.70505 -1.64226,1.54492 -2.734712,3.54892 -3.191588,5.85466 -0.200706,1.01292 -0.195691,3.26623 0.0094,4.20397 0.876524,4.0086 3.494375,6.98967 7.160313,8.15379 1.74133,0.55295 2.14904,0.58358 7.97984,0.59936 l 4.55083,0.0123 z"/></g></svg>