<svg xmlns="http://www.w3.org/2000/svg" xmlns:svg="http://www.w3.org/2000/svg" id="svg2" width="587.595" height="416.6" version="1.1" viewBox="0 0 550.87 390.563"><metadata id="metadata7"/><g id="layer1" transform="translate(-88.307329,-91.63469)"><path style="fill:#000" id="path4339" d="m 129.50515,374.36853 c -6.02965,-3.27165 -5.76257,13.38323 -5.76257,-88.43462 0,-102.20319 -0.29444,-83.24503 5.96727,-86.48308 2.59605,-1.34249 48.35935,-1.51693 244.03275,-1.51693 195.6734,0 221.4367,0.17444 224.0328,1.51693 6.2617,3.23805 5.9672,-15.72011 5.9672,86.48308 0,102.20319 0.2945,85.24503 -5.9672,88.48308 -2.5968,1.34286 -28.3284,1.51234 -224.2331,1.47689 -193.7913,-0.0351 -241.64,-0.22467 -244.03715,-1.52535 z m 308.23745,-88.43462 0,-71.00001 -134.5,0 -162.50001,0 0,71.00001 0,73.00001 162.50001,0 134.5,0 z m 149,0 0,-71.00001 -72,0 -64,0 0,71.00001 0,73.00001 64,0 72,0 z m -89.7118,8.71186 c -12.1521,-12.15205 -14.2882,-14.74514 -14.2882,-17.34501 0,-6.24076 0.6304,-6.36685 31.8288,-6.36685 26.8379,0 28.2659,0.0947 30.1712,2 3.8036,3.80356 2.6974,5.64693 -12.7067,21.17496 -12.4485,12.54857 -15.1683,14.82505 -17.7119,14.82505 -2.5333,0 -5.2486,-2.24347 -17.2932,-14.28815 z"/></g></svg>